<svg xmlns="http://www.w3.org/2000/svg" viewBox="0 0 512 512" width="512" height="512">
  <defs>
    <linearGradient id="bg" x1="0%" y1="0%" x2="100%" y2="100%">
      <stop offset="0%" stop-color="#1e1b4b" />
      <stop offset="100%" stop-color="#0f172a" />
    </linearGradient>
  </defs>
  <rect width="512" height="512" rx="110" fill="url(#bg)" />
  
  <!-- Pixel Art Magic Potion / Pixel Forge Anvil Icon -->
  <g transform="translate(64, 64) scale(12)">
    <!-- Palette of Pixels Grid (32x32 logic) -->
    <!-- Heart / Spark pixel art -->
    <rect x="10" y="8" width="4" height="4" fill="#ef4444" />
    <rect x="18" y="8" width="4" height="4" fill="#ef4444" />
    <rect x="8" y="12" width="16" height="4" fill="#f43f5e" />
    <rect x="8" y="16" width="16" height="4" fill="#f43f5e" />
    <rect x="10" y="20" width="12" height="4" fill="#e11d48" />
    <rect x="12" y="24" width="8" height="4" fill="#be123c" />
    <rect x="14" y="28" width="4" height="4" fill="#9f1239" />
    
    <!-- Highlight shine -->
    <rect x="10" y="12" width="2" height="2" fill="#ffffff" />
    <rect x="18" y="12" width="2" height="2" fill="#ffffff" />
    
    <!-- Magic sparkles -->
    <rect x="4" y="4" width="2" height="2" fill="#38bdf8" />
    <rect x="14" y="2" width="2" height="2" fill="#fef3c7" />
    <rect x="26" y="6" width="2" height="2" fill="#fbbf24" />
    <rect x="30" y="14" width="2" height="2" fill="#f9a8d4" />
    <rect x="26" y="24" width="2" height="2" fill="#a855f7" />
    <rect x="18" y="30" width="2" height="2" fill="#fbbf24" />
    <rect x="10" y="28" width="2" height="2" fill="#86efac" />
    <rect x="2" y="18" width="2" height="2" fill="#67e8f9" />
    <rect x="6" y="10" width="2" height="2" fill="#34d399" />
    <rect x="24" y="18" width="2" height="2" fill="#fef08a" />
    <rect x="8" y="22" width="2" height="2" fill="#a78bfa" />
  </g>
</svg>
